<svg height="476pt" viewBox="0 -18 476.49848 476" width="476pt" xmlns="http://www.w3.org/2000/svg"><path d="m214.933594 103.992188-9.398438 44.65625c-6.328125 30.054687-9.828125 60.636718-10.457031 91.34375l10.480469 168c0 4.242187 1.6875 8.3125 4.6875 11.3125s7.070312 4.6875 11.3125 4.6875h218.75c4.242187 0 8.3125-1.6875 11.3125-4.6875 6.246094-6.25 6.246094-16.378907 0-22.625l-4.6875-4.6875 6.871094-29.214844c16.554687-70.328125 17.417968-143.433594 2.527343-214.128906l-9.398437-44.65625zm0 0" fill="#e5d3bd"/><path d="m246.347656 303.992188c4.5.011718 8.769532 1.96875 11.714844 5.363281 2.945312 3.398437 4.277344 7.902343 3.65625 12.355469-8.734375 63.335937-62.867188 110.515624-126.800781 110.515624-63.9375 0-118.066407-47.179687-126.800781-110.515624-.625-4.457032.710937-8.96875 3.664062-12.367188s7.234375-5.351562 11.738281-5.351562zm0 0" fill="#ccc"/><path d="m30.933594 303.992188 44-44c33.136718-33.136719 86.863281-33.136719 120 0l44 44zm0 0" fill="#f2f2f2"/><path d="m94.933594 335.992188h24c30.929687 0 56 25.070312 56 56h-24c-30.929688 0-56-25.074219-56-56zm0 0" fill="#c69c6d"/><path d="m286.933594 207.992188c26.507812 0 48 21.488281 48 48-26.507813 0-48-21.492188-48-48zm0 0" fill="#a67c52"/><path d="m334.933594 167.992188c18.742187 18.746093 18.742187 49.136718 0 67.882812-18.746094-18.746094-18.746094-49.136719 0-67.882812zm0 0" fill="#c69c6d"/><path d="m286.933594 247.992188c26.507812 0 48 21.488281 48 48-26.507813 0-48-21.492188-48-48zm0 0" fill="#c69c6d"/><path d="m286.933594 287.992188c26.507812 0 48 21.488281 48 48-26.507813 0-48-21.492188-48-48zm0 0" fill="#a67c52"/><path d="m334.933594 335.992188c0-26.511719 21.492187-48 48-48 0 26.507812-21.492188 48-48 48zm0 0" fill="#c69c6d"/><path d="m334.933594 295.992188c0-26.511719 21.492187-48 48-48 0 26.507812-21.492188 48-48 48zm0 0" fill="#a67c52"/><path d="m334.933594 255.992188c0-26.511719 21.492187-48 48-48 0 26.507812-21.492188 48-48 48zm0 0" fill="#c69c6d"/><path d="m226.332031 55.992188h215c8.234375 0 15.636719 5.011718 18.699219 12.65625l7.925781 19.832031c1.667969 4.160156-.332031 8.886719-4.480469 10.589843-82.492187 33.972657-174.898437 34.882813-258.046874 2.546876l-5.433594-2.113282c-2.242188-.875-3.988282-2.691406-4.769532-4.972656-.78125-2.277344-.515624-4.785156.722657-6.851562l13.152343-21.914063c3.632813-6.050781 10.171876-9.761719 17.230469-9.773437zm0 0" fill="#d6c2ad"/><path d="m230.933594 55.992188 42.070312-29.128907c36.988282-25.597656 86.203125-24.664062 122.195313 2.320313l35.734375 26.808594" fill="#f2f2f2"/><path d="m269.636719 322.816406c.949219-6.746094-1.070313-13.570312-5.535157-18.714844-4.464843-5.144531-10.941406-8.101562-17.753906-8.109374h-4.101562l-41.65625-41.65625c-36.265625-36.253907-95.046875-36.253907-131.3125 0l-41.65625 41.65625h-4.101563c-6.8125.007812-13.289062 2.964843-17.753906 8.109374-4.464844 5.144532-6.484375 11.96875-5.535156 18.714844 9.578125 67.085938 66.9375 116.980469 134.703125 117.175782 23.589844-.03125 46.757812-6.242188 67.199218-18.015626.738282 1.058594 1.558594 2.054688 2.457032 2.984376 4.492187 4.515624 10.605468 7.050781 16.976562 7.03125h218.734375c9.707031 0 18.460938-5.847657 22.175781-14.8125 3.714844-8.96875 1.664063-19.292969-5.199218-26.15625l-1.535156-1.535157 5.855468-24.882812c16.707032-71.476563 17.585938-145.746094 2.566406-217.597657l-7.71875-36.671874c3.351563-1.265626 6.71875-2.488282 10.046876-3.855469 8.183593-3.398438 12.128906-12.730469 8.867187-20.96875l-7.929687-19.824219c-4.234376-10.703125-14.585938-17.722656-26.097657-17.695312h-7.703125l-33.597656-25.199219c-38.726562-29.109375-91.75-30.117188-131.554688-2.503907l-40 27.703126h-2.09375c-9.878906.027343-19.027343 5.207031-24.128906 13.664062l-13.144531 21.910156c-2.449219 4.089844-2.976563 9.046875-1.433594 13.558594s4.992188 8.109375 9.433594 9.84375l5.433594 2.101562c.984375.386719 1.976562.707032 2.957031 1.074219l-7.757812 36.855469c-6.417969 30.535156-9.976563 61.601562-10.625 92.800781l16 .335938c.605468-30.199219 4.023437-60.277344 10.214843-89.839844l7.320313-34.761719c35.691406 11.765625 73.023437 17.777344 110.601562 17.808594 37.351563-.050781 74.457032-6.011719 109.945313-17.664062l7.285156 34.617187c14.539063 69.554687 13.6875 141.453125-2.488281 210.648437l-6.878906 29.214844c-.632813 2.695313.175781 5.53125 2.136718 7.488282l4.6875 4.6875c2.285156 2.285156 2.96875 5.722656 1.738282 8.710937-1.234376 2.984375-4.144532 4.9375-7.378907 4.945313h-218.734375c-2.125 0-4.164062-.84375-5.664062-2.34375-.121094-.121094-.160156-.289063-.273438-.410157 29.441406-21.640625 48.914063-54.238281 54.007813-90.421875zm7.921875-289.367187c34.132812-23.664063 79.585937-22.804688 112.800781 2.132812l16.574219 12.410157h-150.398438zm-69.265625 60.710937-5.511719-2.359375 13.144531-21.914062c2.199219-3.644531 6.140625-5.878907 10.398438-5.894531h215.007812c4.96875-.015626 9.4375 3.011718 11.265625 7.632812l7.839844 20.046875c-80.578125 33.34375-170.925781 34.234375-252.144531 2.488281zm-127.703125 171.488282c30.035156-29.960938 78.652344-29.960938 108.6875 0l30.34375 30.34375h-124.6875v-8h-16v8h-28.6875zm54.34375 158.34375c-59.792969-.167969-110.402344-44.1875-118.855469-103.375-.324219-2.183594.335937-4.398438 1.800781-6.050782 1.40625-1.644531 3.472656-2.589844 5.640625-2.574218h222.828125c2.15625-.003907 4.203125.9375 5.601563 2.574218 1.464843 1.652344 2.121093 3.867188 1.800781 6.050782-8.453125 59.175781-59.039062 103.1875-118.816406 103.375zm0 0"/><path d="m118.933594 327.992188h-32v8c.039062 35.328124 28.671875 63.960937 64 64h32v-8c-.039063-35.332032-28.671875-63.960938-64-64zm32 56c-23.414063-.03125-43.402344-16.921876-47.335938-40h15.335938c23.414062.027343 43.402344 16.917968 47.335937 40zm0 0"/><path d="m278.933594 287.992188c.03125 27.8125 20.472656 51.386718 48 55.359374v24.640626h16v-24.640626c27.527344-3.972656 47.96875-27.546874 48-55.359374 0-4.417969-3.582032-8-8-8-.734375 0-1.457032.078124-2.191406.109374 6.632812-9.390624 10.191406-20.609374 10.191406-32.109374 0-4.417969-3.582032-8-8-8-.734375 0-1.457032.078124-2.191406.109374 6.632812-9.390624 10.191406-20.609374 10.191406-32.109374 0-4.417969-3.582032-8-8-8-9.132813-.007813-18.125 2.238281-26.183594 6.535156 1.382812-16.390625-4.53125-32.558594-16.160156-44.191406-3.125-3.125-8.1875-3.125-11.3125 0-11.628906 11.632812-17.542969 27.800781-16.160156 44.191406-8.058594-4.296875-17.050782-6.542969-26.183594-6.535156-4.417969 0-8 3.582031-8 8 0 11.5 3.558594 22.71875 10.191406 32.109374-.734375 0-1.457031-.109374-2.191406-.109374-4.417969 0-8 3.582031-8 8 0 11.5 3.558594 22.71875 10.191406 32.109374-.734375 0-1.457031-.109374-2.191406-.109374-4.417969 0-8 3.582031-8 8zm17.023437 9.023437c14.867188 3.476563 26.476563 15.085937 29.953125 29.953125-14.867187-3.476562-26.476562-15.085938-29.953125-29.953125zm29.953125-10.046875c-14.867187-3.476562-26.476562-15.085938-29.953125-29.953125 14.867188 3.476563 26.476563 15.085937 29.953125 29.953125zm48-29.953125c-3.476562 14.867187-15.085937 26.476563-29.953125 29.953125 3.476563-14.867188 15.085938-26.476562 29.953125-29.953125zm-29.953125 69.953125c3.476563-14.867188 15.085938-26.476562 29.953125-29.953125-3.476562 14.867187-15.085937 26.476563-29.953125 29.953125zm0-80c3.476563-14.867188 15.085938-26.476562 29.953125-29.953125-3.476562 14.867187-15.085937 26.476563-29.953125 29.953125zm-9.023437-66.175781c8.054687 12.964843 8.054687 29.382812 0 42.351562-8.054688-12.96875-8.054688-29.386719 0-42.351562zm-9.023438 66.207031c-14.867187-3.476562-26.476562-15.085938-29.953125-29.953125 14.859375 3.472656 26.464844 15.066406 29.953125 29.921875zm0 0"/><path d="m118.933594 255.992188h16v16h-16zm0 0"/><path d="m158.933594 271.992188h16v16h-16zm0 0"/></svg>